<svg width="244" height="162" viewBox="0 0 244 162" fill="none" xmlns="http://www.w3.org/2000/svg">
<g filter="url(#filter0_d_4_32)">
<path d="M7.49766 53V0.95H14.5477V53H7.49766ZM41.0977 53V0.95H48.1477V53H41.0977ZM12.2977 29.3V22.85H42.8227V29.3H12.2977ZM73.9014 53.75C69.8014 53.75 66.3014 53 63.4014 51.5C60.5014 50 57.9264 47.825 55.6764 44.975L60.4764 40.175C62.1264 42.475 64.0264 44.225 66.1764 45.425C68.3264 46.575 70.9764 47.15 74.1264 47.15C77.2264 47.15 79.7014 46.475 81.5514 45.125C83.4514 43.775 84.4014 41.925 84.4014 39.575C84.4014 37.625 83.9514 36.05 83.0514 34.85C82.1514 33.65 80.9264 32.675 79.3764 31.925C77.8764 31.125 76.2264 30.425 74.4264 29.825C72.6264 29.175 70.8264 28.5 69.0264 27.8C67.2264 27.05 65.5764 26.15 64.0764 25.1C62.5764 24 61.3514 22.575 60.4014 20.825C59.5014 19.075 59.0514 16.875 59.0514 14.225C59.0514 11.275 59.7514 8.775 61.1514 6.725C62.6014 4.625 64.5514 3.025 67.0014 1.925C69.5014 0.774996 72.3014 0.199996 75.4014 0.199996C78.8014 0.199996 81.8514 0.874996 84.5514 2.225C87.2514 3.525 89.4514 5.25 91.1514 7.4L86.3514 12.2C84.8014 10.4 83.1264 9.05 81.3264 8.15C79.5764 7.25 77.5514 6.8 75.2514 6.8C72.4514 6.8 70.2264 7.425 68.5764 8.675C66.9264 9.875 66.1014 11.575 66.1014 13.775C66.1014 15.525 66.5514 16.95 67.4514 18.05C68.4014 19.1 69.6264 20 71.1264 20.75C72.6264 21.5 74.2764 22.2 76.0764 22.85C77.9264 23.45 79.7514 24.125 81.5514 24.875C83.3514 25.625 85.0014 26.575 86.5014 27.725C88.0014 28.875 89.2014 30.375 90.1014 32.225C91.0514 34.025 91.5264 36.3 91.5264 39.05C91.5264 43.65 89.9264 47.25 86.7264 49.85C83.5764 52.45 79.3014 53.75 73.9014 53.75ZM101.028 53V0.95H105.978L128.028 37.175H124.653L146.703 0.95H151.653V53H144.603V13.325L146.253 13.775L128.853 42.35H123.903L106.503 13.775L108.078 13.325V53H101.028ZM177.393 53.75C173.293 53.75 169.793 53 166.893 51.5C163.993 50 161.418 47.825 159.168 44.975L163.968 40.175C165.618 42.475 167.518 44.225 169.668 45.425C171.818 46.575 174.468 47.15 177.618 47.15C180.718 47.15 183.193 46.475 185.043 45.125C186.943 43.775 187.893 41.925 187.893 39.575C187.893 37.625 187.443 36.05 186.543 34.85C185.643 33.65 184.418 32.675 182.868 31.925C181.368 31.125 179.718 30.425 177.918 29.825C176.118 29.175 174.318 28.5 172.518 27.8C170.718 27.05 169.068 26.15 167.568 25.1C166.068 24 164.843 22.575 163.893 20.825C162.993 19.075 162.543 16.875 162.543 14.225C162.543 11.275 163.243 8.775 164.643 6.725C166.093 4.625 168.043 3.025 170.493 1.925C172.993 0.774996 175.793 0.199996 178.893 0.199996C182.293 0.199996 185.343 0.874996 188.043 2.225C190.743 3.525 192.943 5.25 194.643 7.4L189.843 12.2C188.293 10.4 186.618 9.05 184.818 8.15C183.068 7.25 181.043 6.8 178.743 6.8C175.943 6.8 173.718 7.425 172.068 8.675C170.418 9.875 169.593 11.575 169.593 13.775C169.593 15.525 170.043 16.95 170.943 18.05C171.893 19.1 173.118 20 174.618 20.75C176.118 21.5 177.768 22.2 179.568 22.85C181.418 23.45 183.243 24.125 185.043 24.875C186.843 25.625 188.493 26.575 189.993 27.725C191.493 28.875 192.693 30.375 193.593 32.225C194.543 34.025 195.018 36.3 195.018 39.05C195.018 43.65 193.418 47.25 190.218 49.85C187.068 52.45 182.793 53.75 177.393 53.75ZM217.676 53.75C213.576 53.75 210.076 53 207.176 51.5C204.276 50 201.701 47.825 199.451 44.975L204.251 40.175C205.901 42.475 207.801 44.225 209.951 45.425C212.101 46.575 214.751 47.15 217.901 47.15C221.001 47.15 223.476 46.475 225.326 45.125C227.226 43.775 228.176 41.925 228.176 39.575C228.176 37.625 227.726 36.05 226.826 34.85C225.926 33.65 224.701 32.675 223.151 31.925C221.651 31.125 220.001 30.425 218.201 29.825C216.401 29.175 214.601 28.5 212.801 27.8C211.001 27.05 209.351 26.15 207.851 25.1C206.351 24 205.126 22.575 204.176 20.825C203.276 19.075 202.826 16.875 202.826 14.225C202.826 11.275 203.526 8.775 204.926 6.725C206.376 4.625 208.326 3.025 210.776 1.925C213.276 0.774996 216.076 0.199996 219.176 0.199996C222.576 0.199996 225.626 0.874996 228.326 2.225C231.026 3.525 233.226 5.25 234.926 7.4L230.126 12.2C228.576 10.4 226.901 9.05 225.101 8.15C223.351 7.25 221.326 6.8 219.026 6.8C216.226 6.8 214.001 7.425 212.351 8.675C210.701 9.875 209.876 11.575 209.876 13.775C209.876 15.525 210.326 16.95 211.226 18.05C212.176 19.1 213.401 20 214.901 20.75C216.401 21.5 218.051 22.2 219.851 22.85C221.701 23.45 223.526 24.125 225.326 24.875C227.126 25.625 228.776 26.575 230.276 27.725C231.776 28.875 232.976 30.375 233.876 32.225C234.826 34.025 235.301 36.3 235.301 39.05C235.301 43.65 233.701 47.25 230.501 49.85C227.351 52.45 223.076 53.75 217.676 53.75ZM4.9708 133V80.95H12.0208V133H4.9708ZM9.7708 133V126.55H37.6708V133H9.7708ZM45.2276 133V97.375H51.9776V133H45.2276ZM48.6026 90.25C47.3526 90.25 46.3276 89.85 45.5276 89.05C44.7276 88.2 44.3276 87.15 44.3276 85.9C44.3276 84.7 44.7276 83.7 45.5276 82.9C46.3276 82.05 47.3526 81.625 48.6026 81.625C49.8526 81.625 50.8776 82.05 51.6776 82.9C52.4776 83.7 52.8776 84.7 52.8776 85.9C52.8776 87.15 52.4776 88.2 51.6776 89.05C50.8776 89.85 49.8526 90.25 48.6026 90.25ZM80.6751 133.75C77.9751 133.75 75.5251 133.2 73.3251 132.1C71.1751 130.95 69.4501 129.375 68.1501 127.375C66.8501 125.375 66.1251 123.1 65.9751 120.55V109.825C66.1251 107.225 66.8501 104.95 68.1501 103C69.5001 101 71.2501 99.45 73.4001 98.35C75.6001 97.2 78.0251 96.625 80.6751 96.625C83.9251 96.625 86.8501 97.45 89.4501 99.1C92.1001 100.75 94.1751 102.975 95.6751 105.775C97.1751 108.575 97.9251 111.725 97.9251 115.225C97.9251 118.725 97.1751 121.875 95.6751 124.675C94.1751 127.475 92.1001 129.7 89.4501 131.35C86.8501 132.95 83.9251 133.75 80.6751 133.75ZM61.9251 133V79.45H68.6751V106.075L67.4001 114.7L68.6751 123.4V133H61.9251ZM79.5501 127.375C81.8001 127.375 83.7751 126.85 85.4751 125.8C87.1751 124.75 88.5251 123.325 89.5251 121.525C90.5251 119.675 91.0251 117.55 91.0251 115.15C91.0251 112.8 90.5251 110.7 89.5251 108.85C88.5251 107 87.1751 105.575 85.4751 104.575C83.7751 103.525 81.8251 103 79.6251 103C77.3751 103 75.4001 103.525 73.7001 104.575C72.0001 105.575 70.6751 107 69.7251 108.85C68.7751 110.7 68.3001 112.825 68.3001 115.225C68.3001 117.575 68.7501 119.675 69.6501 121.525C70.6001 123.325 71.9251 124.75 73.6251 125.8C75.3751 126.85 77.3501 127.375 79.5501 127.375ZM105.577 133V97.375H112.327V133H105.577ZM112.327 112.675L109.777 111.55C109.777 107 110.827 103.375 112.927 100.675C115.027 97.975 118.052 96.625 122.002 96.625C123.802 96.625 125.427 96.95 126.877 97.6C128.327 98.2 129.677 99.225 130.927 100.675L126.502 105.25C125.752 104.45 124.927 103.875 124.027 103.525C123.127 103.175 122.077 103 120.877 103C118.377 103 116.327 103.8 114.727 105.4C113.127 107 112.327 109.425 112.327 112.675ZM149.658 133.75C146.408 133.75 143.458 132.95 140.808 131.35C138.158 129.7 136.058 127.475 134.508 124.675C133.008 121.875 132.258 118.725 132.258 115.225C132.258 111.725 133.008 108.575 134.508 105.775C136.058 102.975 138.133 100.75 140.733 99.1C143.383 97.45 146.358 96.625 149.658 96.625C152.358 96.625 154.758 97.2 156.858 98.35C159.008 99.45 160.733 101 162.033 103C163.333 104.95 164.058 107.225 164.208 109.825V120.55C164.058 123.1 163.333 125.375 162.033 127.375C160.783 129.375 159.083 130.95 156.933 132.1C154.833 133.2 152.408 133.75 149.658 133.75ZM150.783 127.375C154.133 127.375 156.833 126.25 158.883 124C160.933 121.7 161.958 118.775 161.958 115.225C161.958 112.775 161.483 110.65 160.533 108.85C159.633 107 158.333 105.575 156.633 104.575C154.933 103.525 152.958 103 150.708 103C148.458 103 146.458 103.525 144.708 104.575C143.008 105.625 141.658 107.075 140.658 108.925C139.708 110.725 139.233 112.8 139.233 115.15C139.233 117.55 139.708 119.675 140.658 121.525C141.658 123.325 143.033 124.75 144.783 125.8C146.533 126.85 148.533 127.375 150.783 127.375ZM161.508 133V123.4L162.783 114.7L161.508 106.075V97.375H168.333V133H161.508ZM178.16 133V97.375H184.91V133H178.16ZM184.91 112.675L182.36 111.55C182.36 107 183.41 103.375 185.51 100.675C187.61 97.975 190.635 96.625 194.585 96.625C196.385 96.625 198.01 96.95 199.46 97.6C200.91 98.2 202.26 99.225 203.51 100.675L199.085 105.25C198.335 104.45 197.51 103.875 196.61 103.525C195.71 103.175 194.66 103 193.46 103C190.96 103 188.91 103.8 187.31 105.4C185.71 107 184.91 109.425 184.91 112.675ZM219.304 133.3L203.854 97.375H211.354L222.829 125.5H220.429L232.504 97.375H240.004L223.354 133.3H219.304ZM209.104 147.925L219.604 126.4L223.354 133.3L216.604 147.925H209.104Z" fill="white"/>
</g>
<defs>
<filter id="filter0_d_4_32" x="0.970795" y="0.199997" width="243.033" height="161.725" filterUnits="userSpaceOnUse" color-interpolation-filters="sRGB">
<feFlood flood-opacity="0" result="BackgroundImageFix"/>
<feColorMatrix in="SourceAlpha" type="matrix" values="0 0 0 0 0 0 0 0 0 0 0 0 0 0 0 0 0 0 127 0" result="hardAlpha"/>
<feOffset dy="10"/>
<feGaussianBlur stdDeviation="2"/>
<feComposite in2="hardAlpha" operator="out"/>
<feColorMatrix type="matrix" values="0 0 0 0 0 0 0 0 0 0 0 0 0 0 0 0 0 0 0.3 0"/>
<feBlend mode="normal" in2="BackgroundImageFix" result="effect1_dropShadow_4_32"/>
<feBlend mode="normal" in="SourceGraphic" in2="effect1_dropShadow_4_32" result="shape"/>
</filter>
</defs>
</svg>
