<svg width="135" height="55" viewBox="0 0 135 55" fill="none" xmlns="http://www.w3.org/2000/svg">
<path d="M28.8095 0.999999H32.7095V22H28.8095V0.999999ZM17.9495 22H14.0495V0.999999H17.9495V22ZM29.1095 13H17.6195V9.67H29.1095V13ZM44.8466 22.3C43.2066 22.3 41.6366 22.07 40.1366 21.61C38.6366 21.13 37.4466 20.52 36.5666 19.78L37.9166 16.75C38.7566 17.41 39.7966 17.96 41.0366 18.4C42.2766 18.84 43.5466 19.06 44.8466 19.06C45.9466 19.06 46.8366 18.94 47.5166 18.7C48.1966 18.46 48.6966 18.14 49.0166 17.74C49.3366 17.32 49.4966 16.85 49.4966 16.33C49.4966 15.69 49.2666 15.18 48.8066 14.8C48.3466 14.4 47.7466 14.09 47.0066 13.87C46.2866 13.63 45.4766 13.41 44.5766 13.21C43.6966 13.01 42.8066 12.78 41.9066 12.52C41.0266 12.24 40.2166 11.89 39.4766 11.47C38.7566 11.03 38.1666 10.45 37.7066 9.73C37.2466 9.01 37.0166 8.09 37.0166 6.97C37.0166 5.83 37.3166 4.79 37.9166 3.85C38.5366 2.89 39.4666 2.13 40.7066 1.57C41.9666 0.989999 43.5566 0.699999 45.4766 0.699999C46.7366 0.699999 47.9866 0.859999 49.2266 1.18C50.4666 1.5 51.5466 1.96 52.4666 2.56L51.2366 5.59C50.2966 5.03 49.3266 4.62 48.3266 4.36C47.3266 4.08 46.3666 3.94 45.4466 3.94C44.3666 3.94 43.4866 4.07 42.8066 4.33C42.1466 4.59 41.6566 4.93 41.3366 5.35C41.0366 5.77 40.8866 6.25 40.8866 6.79C40.8866 7.43 41.1066 7.95 41.5466 8.35C42.0066 8.73 42.5966 9.03 43.3166 9.25C44.0566 9.47 44.8766 9.69 45.7766 9.91C46.6766 10.11 47.5666 10.34 48.4466 10.6C49.3466 10.86 50.1566 11.2 50.8766 11.62C51.6166 12.04 52.2066 12.61 52.6466 13.33C53.1066 14.05 53.3366 14.96 53.3366 16.06C53.3366 17.18 53.0266 18.22 52.4066 19.18C51.8066 20.12 50.8766 20.88 49.6166 21.46C48.3566 22.02 46.7666 22.3 44.8466 22.3ZM57.2038 22V0.999999H60.4138L69.5938 16.33H67.9138L76.9438 0.999999H80.1538L80.1838 22H76.4938L76.4638 6.79H77.2438L69.5638 19.6H67.8238L60.0238 6.79H60.9238V22H57.2038ZM92.3661 22.3C90.7261 22.3 89.1561 22.07 87.6561 21.61C86.1561 21.13 84.9661 20.52 84.0861 19.78L85.4361 16.75C86.2761 17.41 87.3161 17.96 88.5561 18.4C89.7961 18.84 91.0661 19.06 92.3661 19.06C93.4661 19.06 94.3561 18.94 95.0361 18.7C95.7161 18.46 96.2161 18.14 96.5361 17.74C96.8561 17.32 97.0161 16.85 97.0161 16.33C97.0161 15.69 96.7861 15.18 96.3261 14.8C95.8661 14.4 95.2661 14.09 94.5261 13.87C93.8061 13.63 92.9961 13.41 92.0961 13.21C91.2161 13.01 90.3261 12.78 89.4261 12.52C88.5461 12.24 87.7361 11.89 86.9961 11.47C86.2761 11.03 85.6861 10.45 85.2261 9.73C84.7661 9.01 84.5361 8.09 84.5361 6.97C84.5361 5.83 84.8361 4.79 85.4361 3.85C86.0561 2.89 86.9861 2.13 88.2261 1.57C89.4861 0.989999 91.0761 0.699999 92.9961 0.699999C94.2561 0.699999 95.5061 0.859999 96.7461 1.18C97.9861 1.5 99.0661 1.96 99.9861 2.56L98.7561 5.59C97.8161 5.03 96.8461 4.62 95.8461 4.36C94.8461 4.08 93.8861 3.94 92.9661 3.94C91.8861 3.94 91.0061 4.07 90.3261 4.33C89.6661 4.59 89.1761 4.93 88.8561 5.35C88.5561 5.77 88.4061 6.25 88.4061 6.79C88.4061 7.43 88.6261 7.95 89.0661 8.35C89.5261 8.73 90.1161 9.03 90.8361 9.25C91.5761 9.47 92.3961 9.69 93.2961 9.91C94.1961 10.11 95.0861 10.34 95.9661 10.6C96.8661 10.86 97.6761 11.2 98.3961 11.62C99.1361 12.04 99.7261 12.61 100.166 13.33C100.626 14.05 100.856 14.96 100.856 16.06C100.856 17.18 100.546 18.22 99.9261 19.18C99.3261 20.12 98.3961 20.88 97.1361 21.46C95.8761 22.02 94.2861 22.3 92.3661 22.3ZM111.233 22.3C109.593 22.3 108.023 22.07 106.523 21.61C105.023 21.13 103.833 20.52 102.953 19.78L104.303 16.75C105.143 17.41 106.183 17.96 107.423 18.4C108.663 18.84 109.933 19.06 111.233 19.06C112.333 19.06 113.223 18.94 113.903 18.7C114.583 18.46 115.083 18.14 115.403 17.74C115.723 17.32 115.883 16.85 115.883 16.33C115.883 15.69 115.653 15.18 115.193 14.8C114.733 14.4 114.133 14.09 113.393 13.87C112.673 13.63 111.863 13.41 110.963 13.21C110.083 13.01 109.193 12.78 108.293 12.52C107.413 12.24 106.603 11.89 105.863 11.47C105.143 11.03 104.553 10.45 104.093 9.73C103.633 9.01 103.403 8.09 103.403 6.97C103.403 5.83 103.703 4.79 104.303 3.85C104.923 2.89 105.853 2.13 107.093 1.57C108.353 0.989999 109.943 0.699999 111.863 0.699999C113.123 0.699999 114.373 0.859999 115.613 1.18C116.853 1.5 117.933 1.96 118.853 2.56L117.623 5.59C116.683 5.03 115.713 4.62 114.713 4.36C113.713 4.08 112.753 3.94 111.833 3.94C110.753 3.94 109.873 4.07 109.193 4.33C108.533 4.59 108.043 4.93 107.723 5.35C107.423 5.77 107.273 6.25 107.273 6.79C107.273 7.43 107.493 7.95 107.933 8.35C108.393 8.73 108.983 9.03 109.703 9.25C110.443 9.47 111.263 9.69 112.163 9.91C113.063 10.11 113.953 10.34 114.833 10.6C115.733 10.86 116.543 11.2 117.263 11.62C118.003 12.04 118.593 12.61 119.033 13.33C119.493 14.05 119.723 14.96 119.723 16.06C119.723 17.18 119.413 18.22 118.793 19.18C118.193 20.12 117.263 20.88 116.003 21.46C114.743 22.02 113.153 22.3 111.233 22.3ZM0.690117 55V34H4.59012V51.7H15.5701V55H0.690117ZM18.6491 55V34H22.5491V55H18.6491ZM28.2292 55V34H38.0692C40.5892 34 42.5092 34.5 43.8292 35.5C45.1492 36.48 45.8092 37.8 45.8092 39.46C45.8092 40.58 45.5492 41.54 45.0292 42.34C44.5092 43.12 43.8092 43.73 42.9292 44.17C42.0692 44.59 41.1292 44.8 40.1092 44.8L40.6492 43.72C41.8292 43.72 42.8892 43.94 43.8292 44.38C44.7692 44.8 45.5092 45.42 46.0492 46.24C46.6092 47.06 46.8892 48.08 46.8892 49.3C46.8892 51.1 46.1992 52.5 44.8192 53.5C43.4392 54.5 41.3892 55 38.6692 55H28.2292ZM32.1292 51.94H38.4292C39.8892 51.94 41.0092 51.7 41.7892 51.22C42.5692 50.74 42.9592 49.97 42.9592 48.91C42.9592 47.87 42.5692 47.11 41.7892 46.63C41.0092 46.13 39.8892 45.88 38.4292 45.88H31.8292V42.85H37.6492C39.0092 42.85 40.0492 42.61 40.7692 42.13C41.5092 41.65 41.8792 40.93 41.8792 39.97C41.8792 38.99 41.5092 38.26 40.7692 37.78C40.0492 37.3 39.0092 37.06 37.6492 37.06H32.1292V51.94ZM51.0514 55V34H59.6914C61.5514 34 63.1414 34.3 64.4614 34.9C65.8014 35.5 66.8314 36.36 67.5514 37.48C68.2714 38.6 68.6314 39.93 68.6314 41.47C68.6314 43.01 68.2714 44.34 67.5514 45.46C66.8314 46.56 65.8014 47.41 64.4614 48.01C63.1414 48.59 61.5514 48.88 59.6914 48.88H53.2114L54.9514 47.11V55H51.0514ZM64.7914 55L59.4814 47.38H63.6514L68.9914 55H64.7914ZM54.9514 47.53L53.2114 45.67H59.5114C61.2314 45.67 62.5214 45.3 63.3814 44.56C64.2614 43.82 64.7014 42.79 64.7014 41.47C64.7014 40.13 64.2614 39.1 63.3814 38.38C62.5214 37.66 61.2314 37.3 59.5114 37.3H53.2114L54.9514 35.38V47.53ZM70.0248 55L79.4748 34H83.3148L92.7948 55H88.7148L80.5848 36.07H82.1448L74.0448 55H70.0248ZM74.3748 50.14L75.4248 47.08H86.7648L87.8148 50.14H74.3748ZM95.4655 55V34H104.106C105.966 34 107.556 34.3 108.876 34.9C110.216 35.5 111.246 36.36 111.966 37.48C112.686 38.6 113.046 39.93 113.046 41.47C113.046 43.01 112.686 44.34 111.966 45.46C111.246 46.56 110.216 47.41 108.876 48.01C107.556 48.59 105.966 48.88 104.106 48.88H97.6255L99.3655 47.11V55H95.4655ZM109.206 55L103.896 47.38H108.066L113.406 55H109.206ZM99.3655 47.53L97.6255 45.67H103.926C105.646 45.67 106.936 45.3 107.796 44.56C108.676 43.82 109.116 42.79 109.116 41.47C109.116 40.13 108.676 39.1 107.796 38.38C106.936 37.66 105.646 37.3 103.926 37.3H97.6255L99.3655 35.38V47.53ZM122.276 55V46.69L123.146 49.09L114.026 34H118.196L125.516 46.15H123.176L130.556 34H134.396L125.276 49.09L126.176 46.69V55H122.276Z" fill="white"/>
</svg>
