<svg width="11" height="19" viewBox="0 0 11 19" fill="none" xmlns="http://www.w3.org/2000/svg">
<path d="M9.7083 2.70969C7.87828 1.71969 5.10828 0.839687 3.22828 0.679688H3.15828C1.95828 0.679688 0.988281 1.64969 0.988281 2.84969V14.7397C0.988281 15.7097 1.77828 16.5997 2.74828 16.7197L3.05828 16.7597C4.69828 16.9797 7.00828 17.6597 8.86828 18.4397C9.5183 18.7097 10.2383 18.2197 10.2383 17.5097V3.59969C10.2383 3.21969 10.0383 2.88969 9.7083 2.70969ZM3.99828 5.73969H6.24828C6.65828 5.73969 6.99828 6.07969 6.99828 6.48969C6.99828 6.90969 6.65828 7.23969 6.24828 7.23969H3.99828C3.58828 7.23969 3.24828 6.90969 3.24828 6.48969C3.24828 6.07969 3.58828 5.73969 3.99828 5.73969ZM6.99828 10.2397H3.99828C3.58828 10.2397 3.24828 9.9097 3.24828 9.4897C3.24828 9.0797 3.58828 8.7397 3.99828 8.7397H6.99828C7.40828 8.7397 7.74828 9.0797 7.74828 9.4897C7.74828 9.9097 7.40828 10.2397 6.99828 10.2397Z" fill="white"/>
</svg>
